<svg xmlns="http://www.w3.org/2000/svg" width="40" height="40" viewBox="0 0 40 40">
  <g fill="none" fill-rule="evenodd" transform="translate(-4 -4)">
    <rect width="48" height="48"/>
    <g fill="currentColor" fill-rule="nonzero" transform="translate(4 4)">
      <path d="M39.0557143,25.3728571 C39.0557143,25.3728571 35.4667347,24.7744898 32.8081633,22.5697959 C32.0238776,21.9193878 30.8857143,21.422449 29.7771429,21.055102 C30.6683673,21.0155102 31.6136735,21.0404082 32.5069388,21.2210204 C36.2073469,21.9691837 39.7953061,20.1730612 39.7953061,20.1730612 C39.7953061,20.1730612 36.175102,20.5383673 33.0310204,19.1091837 C32.1806122,18.7226531 31.0777551,18.5406122 30.0012245,18.4638776 C30.7755102,18.2412245 31.5971429,18.0669388 32.4083673,18.0220408 C36.1779592,17.8130612 39.1971429,15.1704082 39.1971429,15.1704082 C39.1971429,15.1704082 35.7861224,16.4365306 32.3832653,15.8461224 C31.3922449,15.6740816 30.1757143,15.8028571 29.0436735,16.0304082 C29.7883673,15.5626531 30.6083673,15.1255102 31.4591837,14.8440816 C35.0432653,13.6581633 37.2677551,10.3187755 37.2677551,10.3187755 C37.2677551,10.3187755 34.3055102,12.4316327 30.8665306,12.7502041 C29.8453061,12.8446939 28.6822449,13.3032653 27.6326531,13.8312245 C28.2381633,13.1673469 28.9293878,12.5102041 29.6946939,12.002449 C32.8402041,9.91489796 34.1073469,6.1077551 34.1073469,6.1077551 C34.1073469,6.1077551 31.8059184,8.92591837 28.5718367,10.1385714 C27.6902041,10.4691837 26.7765306,11.1312245 25.9559184,11.8446939 C26.3481633,11.1316327 26.8091837,10.4183673 27.3569388,9.80571429 C29.8730612,6.99122449 30.1369388,2.98755102 30.1369388,2.98755102 C30.1369388,2.98755102 28.6220408,6.29571429 25.7995918,8.28612245 C24.9767347,8.86653061 24.2077551,9.81918367 23.5681633,10.7820408 C23.7636735,9.92367347 24.0336735,9.03346939 24.4363265,8.23122449 C26.13,4.85714286 25.3391837,0.923469388 25.3391837,0.923469388 C25.3391837,0.923469388 24.7408163,4.51244898 22.5361224,7.17102041 C21.8857143,7.95530612 21.3887755,9.09346939 21.0214286,10.202449 C20.9818367,9.31122449 21.0067347,8.36591837 21.1873469,7.47265306 C21.9355102,3.7722449 20.1393878,0.184285714 20.1393878,0.184285714 C20.1393878,0.184285714 20.5046939,3.8044898 19.0753061,6.94857143 C18.6887755,7.79897959 18.5067347,8.90183673 18.43,9.97836735 C18.2073469,9.20408163 18.0330612,8.38244898 17.9881633,7.57122449 C17.7791837,3.80163265 15.1365306,0.78244898 15.1365306,0.78244898 C15.1365306,0.78244898 16.4026531,4.19346939 15.8122449,7.59632653 C15.6402041,8.58734694 15.7689796,9.80387755 15.9965306,10.9361224 C15.5287755,10.1914286 15.0916327,9.37142857 14.8102041,8.52040816 C13.6242857,4.93632653 10.284898,2.71183673 10.284898,2.71183673 C10.284898,2.71183673 12.3977551,5.67408163 12.7163265,9.11306122 C12.8108163,10.1342857 13.2693878,11.2977551 13.797551,12.3471429 C13.1336735,11.7416327 12.4765306,11.0504082 11.9685714,10.284898 C9.88102041,7.13938776 6.07387755,5.87244898 6.07387755,5.87244898 C6.07387755,5.87244898 8.89204082,8.17387755 10.1046939,11.4079592 C10.4353061,12.2895918 11.0973469,13.2034694 11.8108163,14.0238776 C11.0977551,13.6316327 10.3844898,13.1706122 9.77183673,12.6228571 C6.95734694,10.1067347 2.95367347,9.84285714 2.95367347,9.84285714 C2.95367347,9.84285714 6.26183673,11.3577551 8.2522449,14.1804082 C8.8322449,15.0030612 9.78510204,15.7722449 10.747551,16.4118367 C9.88938776,16.2163265 8.99918367,15.9463265 8.19714286,15.5436735 C4.82306122,13.85 0.889387755,14.6408163 0.889387755,14.6408163 C0.889387755,14.6408163 4.47836735,15.2391837 7.13693878,17.4438776 C7.92122449,18.0942857 9.05938776,18.5912245 10.1683673,18.9585714 C9.27714286,18.9981633 8.33183673,18.9732653 7.43857143,18.7926531 C3.73816327,18.0444898 0.150204082,19.8406122 0.150204082,19.8406122 C0.150204082,19.8406122 3.77040816,19.4753061 6.9144898,20.9046939 C7.76489796,21.2912245 8.8677551,21.4732653 9.94428571,21.55 C9.17,21.7726531 8.34836735,21.9469388 7.53714286,21.9918367 C3.76755102,22.2008163 0.748367347,24.8434694 0.748367347,24.8434694 C0.748367347,24.8434694 4.15938776,23.5773469 7.5622449,24.1677551 C8.55326531,24.3397959 9.76979592,24.2110204 10.9020408,23.9834694 C10.1573469,24.4512245 9.33734694,24.8883673 8.48632653,25.1697959 C4.9022449,26.3557143 2.6777551,29.695102 2.6777551,29.695102 C2.6777551,29.695102 5.64,27.5822449 9.07897959,27.2636735 C10.1002041,27.1691837 11.2636735,26.7106122 12.3130612,26.182449 C11.707551,26.8463265 11.0163265,27.5034694 10.2508163,28.0114286 C7.10530612,30.0989796 5.83816327,33.9061224 5.83816327,33.9061224 C5.83816327,33.9061224 8.13959184,31.0879592 11.3736735,29.8753061 C12.255102,29.5446939 13.1689796,28.8826531 13.9893878,28.1691837 C13.5973469,28.8820408 13.1361224,29.5955102 12.5887755,30.2079592 C10.0726531,33.022449 9.80877551,37.0261224 9.80877551,37.0261224 C9.80877551,37.0261224 11.3236735,33.7179592 14.1463265,31.727551 C14.9691837,31.1471429 15.7381633,30.1944898 16.3777551,29.2320408 C16.1822449,30.0904082 15.9122449,30.9804082 15.5095918,31.7826531 C13.8159184,35.1567347 14.6067347,39.0904082 14.6067347,39.0904082 C14.6067347,39.0904082 15.205102,35.5014286 17.4097959,32.8428571 C18.0602041,32.0585714 18.5571429,30.9204082 18.9244898,29.8114286 C18.9640816,30.7030612 18.9391837,31.6481633 18.7585714,32.5414286 C18.0104082,36.2418367 19.8065306,39.8295918 19.8065306,39.8295918 C19.8065306,39.8295918 19.4412245,36.2095918 20.8706122,33.0655102 C21.2571429,32.215102 21.4391837,31.1120408 21.5159184,30.0357143 C21.7385714,30.81 21.9128571,31.6316327 21.9577551,32.4428571 C22.1667347,36.212449 24.8093878,39.2316327 24.8093878,39.2316327 C24.8093878,39.2316327 23.5432653,35.8204082 24.1336735,32.4177551 C24.3057143,31.4267347 24.1769388,30.2102041 23.9493878,29.0781633 C24.4171429,29.8228571 24.8542857,30.6426531 25.1357143,31.4936735 C26.3216327,35.0777551 29.6610204,37.3022449 29.6610204,37.3022449 C29.6610204,37.3022449 27.5481633,34.34 27.2295918,30.9008163 C27.135102,29.8795918 26.6765306,28.7161224 26.1483673,27.6667347 C26.8122449,28.2722449 27.4693878,28.9634694 27.9773469,29.7289796 C30.064898,32.8744898 33.8720408,34.1416327 33.8720408,34.1416327 C33.8720408,34.1416327 31.0538776,31.8402041 29.8412245,28.6061224 C29.5106122,27.7246939 28.8485714,26.8108163 28.135102,25.9904082 C28.8479592,26.382449 29.5612245,26.8436735 30.1738776,27.3910204 C32.9883673,29.9071429 36.9920408,30.1710204 36.9920408,30.1710204 C36.9920408,30.1710204 33.6838776,28.6561224 31.6934694,25.8334694 C31.1130612,25.0106122 30.1604082,24.2414286 29.197551,23.6020408 C30.0559184,23.797551 30.9459184,24.067551 31.7481633,24.4702041 C35.1220408,26.1636735 39.0557143,25.3728571 39.0557143,25.3728571 Z M19.9957143,29.1477551 C14.9440816,29.1477551 10.8489796,25.0526531 10.8489796,20.0010204 C10.8489796,14.9493878 14.9440816,10.8542857 19.9957143,10.8542857 C25.0473469,10.8542857 29.142449,14.9493878 29.142449,20.0010204 C29.142449,25.0526531 25.0473469,29.1477551 19.9957143,29.1477551 Z"/>
      <path d="M17.0957143 16.2993878C17.2908163 16.1471429 17.484898 15.9942857 17.6820408 15.8583673 16.3861224 15.2689796 15.2195918 14.9859184 14.4012245 14.8591837 14.2710204 15.0008163 14.1534694 15.1528571 14.0340816 15.3038776 14.8377551 15.46 15.917551 15.7579592 17.0957143 16.2993878zM14.7946939 14.4555102C15.6740816 14.554898 16.9471429 14.8167347 18.3595918 15.4242857 18.5963265 15.2830612 18.8318367 15.1581633 19.0677551 15.037551 17.5426531 14.4114286 16.1659184 14.1781633 15.2183673 14.1061224 15.0759184 14.2216327 14.9281633 14.3302041 14.7946939 14.4555102zM19.3738776 18.695102C19.1914286 18.5228571 19.0067347 18.3597959 18.8204082 18.2057143 17.1079592 19.8355102 15.6097959 22.212449 14.9334694 25.6612245 15.1793878 25.8812245 15.4234694 26.1036735 15.6963265 26.2908163 16.1932653 22.7832653 17.6497959 20.3622449 19.3738776 18.695102zM18.7097959 17.1802041C18.9038776 17.0240816 19.0977551 16.8673469 19.2944898 16.7277551 19.054898 16.574898 18.8161224 16.4406122 18.5781633 16.3097959 18.3742857 16.4493878 18.1702041 16.5844898 17.9687755 16.7414286 18.2153061 16.8771429 18.4618367 17.0216327 18.7097959 17.1802041zM23.4420408 16.7385714C24.9102041 18.0281633 26.2522449 19.8440816 27.2071429 22.3616327 27.4522449 21.6140816 27.6179592 20.8304082 27.6179592 20.0010204 27.6179592 18.4263265 27.1393878 16.9636735 26.3212245 15.7489796 25.5640816 15.8995918 24.547551 16.1938776 23.4420408 16.7385714zM19.4289796 17.6702041C19.6202041 17.8122449 19.807551 17.9726531 19.9957143 18.1304082 20.1836735 17.972449 20.3710204 17.8122449 20.562449 17.6702041 20.3742857 17.5134694 20.1865306 17.3591837 19.9957143 17.2183673 19.804898 17.3593878 19.6173469 17.5134694 19.4289796 17.6702041zM19.9957143 15.4630612C19.7563265 15.5844898 19.5167347 15.7214286 19.2759184 15.8638776 19.5155102 15.9897959 19.7546939 16.124898 19.9957143 16.2728571 20.2367347 16.125102 20.4761224 15.99 20.7155102 15.8638776 20.4746939 15.7212245 20.235102 15.5844898 19.9957143 15.4630612zM14.1028571 24.7808163C14.9091837 21.4879592 16.4291837 19.2320408 18.1302041 17.6802041 17.892449 17.5122449 17.6555102 17.3581633 17.4179592 17.2157143 15.7810204 18.655102 14.2997959 20.735102 13.3871429 23.7318367 13.597551 24.1036735 13.8353061 24.4516327 14.1028571 24.7808163zM16.5493878 16.7385714C15.4438776 16.1936735 14.4273469 15.8997959 13.67 15.7487755 12.8518367 16.9634694 12.3732653 18.4261224 12.3732653 20.0008163 12.3732653 20.8302041 12.5389796 21.6138776 12.7840816 22.3614286 13.7391837 19.8438776 15.0810204 18.0281633 16.5493878 16.7385714zM19.9957143 14.6077551C21.6173469 13.9377551 23.1132653 13.6997959 24.1771429 13.6369388 22.9757143 12.8459184 21.5416327 12.3787755 19.9957143 12.3787755 18.4497959 12.3787755 17.0157143 12.8461224 15.8142857 13.6369388 16.8781633 13.6997959 18.3740816 13.937551 19.9957143 14.6077551zM19.9957143 19.3397959C18.4755102 21.0244898 17.2208163 23.4432653 16.8136735 26.9073469 17.7846939 27.3559184 18.8559184 27.6232653 19.9957143 27.6232653 21.1357143 27.6232653 22.2067347 27.3559184 23.1777551 26.9073469 22.7706122 23.4434694 21.5159184 21.0244898 19.9957143 19.3397959zM22.5734694 17.2157143C22.3361224 17.3585714 22.0991837 17.5122449 21.8612245 17.6802041 23.5620408 19.2318367 25.0822449 21.4879592 25.8885714 24.7808163 26.1561224 24.4514286 26.3938776 24.1036735 26.6042857 23.7318367 25.6918367 20.7353061 24.2104082 18.655102 22.5734694 17.2157143zM25.0577551 25.6612245C24.3814286 22.212449 22.8832653 19.8357143 21.1708163 18.2057143 20.9842857 18.3597959 20.7997959 18.5228571 20.6173469 18.695102 22.3414286 20.3622449 23.7979592 22.7832653 24.2946939 26.2906122 24.5677551 26.1036735 24.8118367 25.8812245 25.0577551 25.6612245zM20.9236735 15.0373469C21.1595918 15.1579592 21.3953061 15.2830612 21.6318367 15.4240816 23.0442857 14.8165306 24.3173469 14.5546939 25.1967347 14.4553061 25.0632653 14.33 24.9155102 14.2214286 24.7730612 14.1057143 23.8255102 14.1781633 22.4487755 14.4114286 20.9236735 15.0373469zM21.2816327 17.1802041C21.5295918 17.0216327 21.7761224 16.8773469 22.0226531 16.7414286 21.8214286 16.5844898 21.6171429 16.4493878 21.4132653 16.3097959 21.1753061 16.4408163 20.9367347 16.574898 20.6969388 16.7277551 20.8934694 16.8673469 21.087551 17.0242857 21.2816327 17.1802041zM22.8957143 16.2993878C24.0738776 15.7579592 25.1536735 15.46 25.9569388 15.3040816 25.837551 15.1530612 25.7202041 15.0008163 25.5897959 14.8593878 24.7714286 14.9861224 23.604898 15.2689796 22.3089796 15.8585714 22.5065306 15.9940816 22.7008163 16.1471429 22.8957143 16.2993878z"/>
    </g>
  </g>
</svg>
